<svg width="16" height="16" viewBox="0 0 16 16" fill="none" xmlns="http://www.w3.org/2000/svg">
<path fill-rule="evenodd" clip-rule="evenodd" d="M11.2693 2.3813H11.3359C13.1769 2.3813 14.6693 3.87369 14.6693 5.71464V11.7146C14.6693 13.5556 13.1769 15.048 11.3359 15.048H4.66927C3.78522 15.048 2.93737 14.6968 2.31225 14.0717C1.68713 13.4465 1.33594 12.5987 1.33594 11.7146V5.71464C1.33594 3.87369 2.82832 2.3813 4.66927 2.3813H4.73594V1.16797C4.73594 0.891826 4.95979 0.667969 5.23594 0.667969C5.51208 0.667969 5.73594 0.891826 5.73594 1.16797V2.3813H10.2693V1.16797C10.2693 0.891826 10.4931 0.667969 10.7693 0.667969C11.0454 0.667969 11.2693 0.891826 11.2693 1.16797V2.3813ZM5.0026 6.4413H11.0026C11.2787 6.4413 11.5026 6.21744 11.5026 5.9413C11.5026 5.66516 11.2787 5.4413 11.0026 5.4413H5.0026C4.72646 5.4413 4.5026 5.66516 4.5026 5.9413C4.5026 6.21744 4.72646 6.4413 5.0026 6.4413Z" fill="#64748B"/>
</svg>
