<svg width="21" height="21" viewBox="0 0 21 21" fill="none" xmlns="http://www.w3.org/2000/svg">
<path fill-rule="evenodd" clip-rule="evenodd" d="M12.23 0H8C3.58172 0 0 3.58172 0 8V12.24C0 16.6583 3.58172 20.24 8 20.24H12.23C16.6483 20.24 20.23 16.6583 20.23 12.24V8C20.23 3.58172 16.6483 0 12.23 0ZM6.12 4.12C7.22457 4.12 8.12 5.01543 8.12 6.12C8.12 7.22457 7.22457 8.12 6.12 8.12C5.01543 8.12 4.12 7.22457 4.12 6.12C4.12 5.01543 5.01543 4.12 6.12 4.12ZM13.51 18.12C16.3411 17.0627 18.2212 14.3621 18.23 11.34L18.2 9.62C18.2 9.21 18.12 8.44 18.12 8.44H16.49C12.7164 8.45146 9.27057 10.5862 7.58 13.96C6.35291 12.863 4.76591 12.2546 3.12 12.25H1.91C1.82074 14.5747 3.08341 16.7415 5.15 17.81C5.88878 18.2036 6.71293 18.4096 7.55 18.41H11.72C12.329 18.4187 12.9349 18.3206 13.51 18.12Z" fill="#64748B"/>
</svg>
