<svg width="24" height="24" viewBox="0 0 24 24" fill="none" xmlns="http://www.w3.org/2000/svg">
<circle cx="12" cy="12" r="12" fill="#334155"/>
<circle cx="12" cy="12" r="11.5" stroke="#F8FAFC" stroke-opacity="0.1"/>
<path d="M5.49558 13.9771C6.12817 17.3688 9.39055 19.6056 12.7823 18.973C16.1741 18.3404 18.4108 15.078 17.7782 11.6862C17.1456 8.29448 13.8832 6.05774 10.4915 6.69033C7.09973 7.32292 4.86299 10.5853 5.49558 13.9771Z" fill="#64748B"/>
<circle cx="1.56181" cy="1.56181" r="1.56181" transform="matrix(-0.983048 0.183347 0.183347 0.983048 6.75781 11.7324)" fill="#64748B"/>
<ellipse cx="1.56181" cy="1.5618" rx="1.56181" ry="1.5618" transform="matrix(-0.983048 0.183347 0.183347 0.983048 19.0703 11.7324)" fill="#64748B"/>
<path fill-rule="evenodd" clip-rule="evenodd" d="M5.37698 11.2584C6.30992 11.901 7.48862 12.1683 8.66978 11.9031C9.86801 11.634 10.8297 10.8706 11.3952 9.86982C12.2985 11.4629 14.1422 12.3536 15.992 11.9382C16.6561 11.7891 17.2474 11.4882 17.739 11.0792C17.7204 10.9716 17.6991 10.8638 17.6749 10.756C16.9052 7.3284 13.5522 5.16261 10.1858 5.91854C7.56199 6.50772 5.7044 8.69791 5.37698 11.2584Z" fill="#1E293B"/>
<path fill-rule="evenodd" clip-rule="evenodd" d="M16.1307 7.77022L7.02491 7.68404C7.24076 5.92303 9.21619 4.55756 11.6076 4.58019C13.9989 4.60283 15.9482 6.00543 16.1307 7.77022Z" fill="#475569"/>
<rect x="5.50781" y="7.66797" width="12.1418" height="1.51772" rx="0.505908" transform="rotate(0.542194 5.50781 7.66797)" fill="#475569"/>
<path d="M10.0794 5.68758C10.0873 4.8494 10.7732 4.17635 11.6114 4.18428C12.4496 4.19222 13.1226 4.87812 13.1147 5.7163L13.0956 7.73984L10.0602 7.71112L10.0794 5.68758Z" fill="#334155"/>
</svg>
